<svg width="68" height="46" viewBox="0 0 68 46" fill="none" xmlns="http://www.w3.org/2000/svg">
<path fill-rule="evenodd" clip-rule="evenodd" d="M14 1H27V8H41V1H54V8H67V45H1V8H14V1Z" fill="#15ADE8"/>
<path d="M27 1H27.75V0.25H27V1ZM14 1V0.25H13.25V1H14ZM27 8H26.25V8.75H27V8ZM41 8V8.75H41.75V8H41ZM41 1V0.25H40.25V1H41ZM54 1H54.75V0.25H54V1ZM54 8H53.25V8.75H54V8ZM67 8H67.75V7.25H67V8ZM67 45V45.75H67.75V45H67ZM1 45H0.25V45.75H1V45ZM1 8V7.25H0.25V8H1ZM14 8V8.75H14.75V8H14ZM27 0.25H14V1.75H27V0.25ZM27.75 8V1H26.25V8H27.75ZM41 7.25H27V8.75H41V7.25ZM41.75 8V1H40.25V8H41.75ZM41 1.75H54V0.25H41V1.75ZM53.25 1V8H54.75V1H53.25ZM67 7.25H54V8.75H67V7.25ZM67.75 45V8H66.25V45H67.75ZM1 45.75H67V44.25H1V45.75ZM0.25 8V45H1.75V8H0.25ZM14 7.25H1V8.75H14V7.25ZM13.25 1V8H14.75V1H13.25Z" fill="black"/>
<path d="M12.797 19.8H14.685V24.712H20.621V19.8H22.509V31H20.621V26.312H14.685V31H12.797V19.8ZM28.1893 22.44C29.0639 22.44 29.8319 22.6213 30.4933 22.984C31.1653 23.3467 31.6879 23.8533 32.0613 24.504C32.4346 25.144 32.6213 25.8907 32.6213 26.744C32.6213 27.5973 32.4346 28.3493 32.0613 29C31.6879 29.6507 31.1653 30.1573 30.4933 30.52C29.8319 30.8827 29.0639 31.064 28.1893 31.064C27.3146 31.064 26.5413 30.8827 25.8693 30.52C25.1973 30.1573 24.6746 29.6507 24.3013 29C23.9279 28.3493 23.7413 27.5973 23.7413 26.744C23.7413 25.8907 23.9279 25.144 24.3013 24.504C24.6746 23.8533 25.1973 23.3467 25.8693 22.984C26.5413 22.6213 27.3146 22.44 28.1893 22.44ZM28.1893 23.928C27.6773 23.928 27.2239 24.0507 26.8293 24.296C26.4346 24.5307 26.1253 24.8613 25.9013 25.288C25.6879 25.7147 25.5813 26.2053 25.5813 26.76C25.5813 27.3253 25.6879 27.8213 25.9013 28.248C26.1253 28.6747 26.4346 29.0107 26.8293 29.256C27.2239 29.4907 27.6773 29.608 28.1893 29.608C28.7013 29.608 29.1493 29.4907 29.5333 29.256C29.9279 29.0107 30.2319 28.6747 30.4453 28.248C30.6693 27.8213 30.7813 27.3253 30.7813 26.76C30.7813 26.2053 30.6693 25.7147 30.4453 25.288C30.2319 24.8613 29.9279 24.5307 29.5333 24.296C29.1493 24.0507 28.7013 23.928 28.1893 23.928ZM39.9333 26.2C39.9333 25.528 39.7573 25.0053 39.4053 24.632C39.0533 24.248 38.5626 24.056 37.9333 24.056C37.1973 24.0773 36.6159 24.3493 36.1893 24.872C35.7733 25.3947 35.5653 26.04 35.5653 26.808H35.0533C35.0533 25.7627 35.1973 24.92 35.4853 24.28C35.7839 23.64 36.1999 23.176 36.7333 22.888C37.2773 22.5893 37.9173 22.44 38.6533 22.44C39.3039 22.44 39.8586 22.5733 40.3173 22.84C40.7866 23.1067 41.1439 23.4853 41.3893 23.976C41.6453 24.456 41.7733 25.0373 41.7733 25.72V31H39.9333V26.2ZM46.1253 26.2C46.1253 25.528 45.9439 25.0053 45.5813 24.632C45.2293 24.248 44.7386 24.056 44.1093 24.056C43.3839 24.0773 42.8133 24.3493 42.3973 24.872C41.9813 25.3947 41.7733 26.04 41.7733 26.808H41.2453C41.2453 25.7627 41.3893 24.92 41.6773 24.28C41.9759 23.64 42.3919 23.176 42.9253 22.888C43.4693 22.5893 44.1093 22.44 44.8453 22.44C45.4959 22.44 46.0506 22.5733 46.5093 22.84C46.9786 23.1067 47.3359 23.4853 47.5813 23.976C47.8373 24.456 47.9653 25.0373 47.9653 25.72V31H46.1253V26.2ZM33.7413 22.504H35.5653V31H33.7413V22.504ZM55.5167 26.136C55.4954 25.656 55.3834 25.2507 55.1807 24.92C54.9887 24.5787 54.7167 24.3173 54.3647 24.136C54.0127 23.944 53.6074 23.848 53.1487 23.848C52.6367 23.848 52.1887 23.9653 51.8047 24.2C51.4314 24.4347 51.1381 24.7653 50.9247 25.192C50.7114 25.608 50.6047 26.0987 50.6047 26.664C50.6047 27.272 50.7167 27.8 50.9407 28.248C51.1754 28.696 51.4954 29.0427 51.9007 29.288C52.3167 29.5333 52.7914 29.656 53.3247 29.656C54.2741 29.656 55.0741 29.32 55.7247 28.648L56.7007 29.624C56.2847 30.0827 55.7781 30.44 55.1807 30.696C54.5834 30.9413 53.9167 31.064 53.1807 31.064C52.3061 31.064 51.5434 30.8827 50.8927 30.52C50.2421 30.1573 49.7354 29.656 49.3727 29.016C49.0101 28.3653 48.8287 27.6133 48.8287 26.76C48.8287 25.9067 49.0101 25.16 49.3727 24.52C49.7354 23.8693 50.2421 23.3627 50.8927 23C51.5434 22.6373 52.2901 22.4507 53.1327 22.44C54.1354 22.44 54.9407 22.648 55.5487 23.064C56.1567 23.4693 56.5887 24.0453 56.8447 24.792C57.1007 25.5387 57.1914 26.424 57.1167 27.448H50.3167V26.136H55.5167Z" fill="black"/>
</svg>
