<svg width="68" height="46" viewBox="0 0 68 46" fill="none" xmlns="http://www.w3.org/2000/svg">
<path fill-rule="evenodd" clip-rule="evenodd" d="M14 1H27V8H41V1H54V8H67V45H1V8H14V1Z" fill="#FFCF00"/>
<path d="M27 1H27.75V0.25H27V1ZM14 1V0.25H13.25V1H14ZM27 8H26.25V8.75H27V8ZM41 8V8.75H41.75V8H41ZM41 1V0.25H40.25V1H41ZM54 1H54.75V0.25H54V1ZM54 8H53.25V8.75H54V8ZM67 8H67.75V7.25H67V8ZM67 45V45.75H67.75V45H67ZM1 45H0.25V45.75H1V45ZM1 8V7.25H0.25V8H1ZM14 8V8.75H14.75V8H14ZM27 0.25H14V1.75H27V0.25ZM27.75 8V1H26.25V8H27.75ZM41 7.25H27V8.75H41V7.25ZM41.75 8V1H40.25V8H41.75ZM41 1.75H54V0.25H41V1.75ZM53.25 1V8H54.75V1H53.25ZM67 7.25H54V8.75H67V7.25ZM67.75 45V8H66.25V45H67.75ZM1 45.75H67V44.25H1V45.75ZM0.25 8V45H1.75V8H0.25ZM14 7.25H1V8.75H14V7.25ZM13.25 1V8H14.75V1H13.25Z" fill="black"/>
<path d="M21.288 22.392C20.8827 22.136 20.4827 21.9333 20.088 21.784C19.6933 21.6347 19.32 21.528 18.968 21.464C18.616 21.4 18.296 21.368 18.008 21.368C17.4533 21.368 17.0107 21.4747 16.68 21.688C16.3493 21.9013 16.184 22.2107 16.184 22.616C16.184 22.9787 16.2907 23.2773 16.504 23.512C16.728 23.736 17.016 23.9227 17.368 24.072C17.7307 24.2107 18.1253 24.344 18.552 24.472C18.9893 24.6 19.4213 24.744 19.848 24.904C20.2747 25.0533 20.6693 25.2507 21.032 25.496C21.3947 25.7413 21.6827 26.056 21.896 26.44C22.1093 26.8133 22.216 27.288 22.216 27.864C22.216 28.5253 22.0347 29.1013 21.672 29.592C21.3093 30.072 20.808 30.4453 20.168 30.712C19.5387 30.9787 18.8133 31.112 17.992 31.112C17.4053 31.112 16.8347 31.0373 16.28 30.888C15.7253 30.728 15.2027 30.5147 14.712 30.248C14.232 29.9813 13.8 29.672 13.416 29.32L14.232 27.768C14.616 28.12 15.0213 28.4187 15.448 28.664C15.8853 28.9093 16.3227 29.096 16.76 29.224C17.208 29.352 17.6293 29.416 18.024 29.416C18.6853 29.416 19.1973 29.288 19.56 29.032C19.9333 28.776 20.12 28.4187 20.12 27.96C20.12 27.5867 20.008 27.288 19.784 27.064C19.5707 26.8293 19.2827 26.6373 18.92 26.488C18.568 26.3387 18.1733 26.2053 17.736 26.088C17.3093 25.9707 16.8773 25.8373 16.44 25.688C16.0133 25.528 15.6187 25.3307 15.256 25.096C14.904 24.8613 14.616 24.5573 14.392 24.184C14.1787 23.8107 14.072 23.336 14.072 22.76C14.072 22.1307 14.2427 21.5867 14.584 21.128C14.9253 20.6587 15.4 20.296 16.008 20.04C16.6267 19.784 17.3413 19.656 18.152 19.656C18.8773 19.656 19.5813 19.7627 20.264 19.976C20.9467 20.1893 21.5493 20.4667 22.072 20.808L21.288 22.392ZM29.9131 26.2C29.9131 25.5387 29.7318 25.0213 29.3691 24.648C29.0065 24.264 28.5051 24.072 27.8651 24.072C27.1078 24.0827 26.5105 24.3493 26.0731 24.872C25.6465 25.3947 25.4331 26.0453 25.4331 26.824H24.9211C24.9211 25.768 25.0705 24.92 25.3691 24.28C25.6678 23.64 26.0891 23.176 26.6331 22.888C27.1878 22.5893 27.8385 22.44 28.5851 22.44C29.2465 22.44 29.8118 22.5733 30.2811 22.84C30.7611 23.1067 31.1238 23.4853 31.3691 23.976C31.6251 24.456 31.7531 25.0373 31.7531 25.72V31H29.9131V26.2ZM23.5931 19.128H25.4331V31H23.5931V19.128ZM36.2002 27.208C35.6029 27.208 35.1602 27.2987 34.8722 27.48C34.5842 27.6613 34.4402 27.96 34.4402 28.376C34.4402 28.7707 34.5842 29.0853 34.8722 29.32C35.1709 29.5547 35.5762 29.672 36.0882 29.672C36.5469 29.672 36.9576 29.592 37.3203 29.432C37.6829 29.272 37.9709 29.0587 38.1842 28.792C38.3976 28.5147 38.5096 28.2053 38.5202 27.864L38.8723 29.416C38.6056 29.9707 38.2002 30.3867 37.6562 30.664C37.1123 30.9413 36.4616 31.08 35.7042 31.08C35.0962 31.08 34.5682 30.9627 34.1202 30.728C33.6722 30.4933 33.3256 30.1787 33.0802 29.784C32.8349 29.3787 32.7122 28.9307 32.7122 28.44C32.7122 27.672 32.9896 27.0587 33.5442 26.6C34.1096 26.1413 34.9042 25.9067 35.9282 25.896H38.7442V27.208H36.2002ZM38.5043 25.608C38.5043 25.0533 38.3336 24.6213 37.9922 24.312C37.6509 24.0027 37.1442 23.848 36.4722 23.848C36.0669 23.848 35.6509 23.9227 35.2242 24.072C34.8082 24.2213 34.3869 24.44 33.9602 24.728L33.2082 23.544C33.6029 23.2987 33.9762 23.096 34.3282 22.936C34.6802 22.776 35.0536 22.6533 35.4482 22.568C35.8536 22.4827 36.3282 22.44 36.8723 22.44C37.9709 22.44 38.8136 22.7067 39.4002 23.24C39.9976 23.7627 40.3016 24.488 40.3123 25.416L40.3282 31H38.5202L38.5043 25.608ZM46.7753 24.104C46.1673 24.072 45.6393 24.1787 45.1913 24.424C44.7539 24.6587 44.4126 24.9893 44.1673 25.416C43.9326 25.8427 43.8153 26.3333 43.8153 26.888L43.3033 26.824C43.3033 25.8747 43.4419 25.0747 43.7193 24.424C43.9966 23.7733 44.3966 23.2827 44.9193 22.952C45.4419 22.6107 46.0606 22.44 46.7753 22.44V24.104ZM41.9913 22.504H43.8313V31H41.9913V22.504ZM53.3761 26.136C53.3548 25.656 53.2428 25.2507 53.0401 24.92C52.8481 24.5787 52.5761 24.3173 52.2241 24.136C51.8721 23.944 51.4668 23.848 51.0081 23.848C50.4961 23.848 50.0481 23.9653 49.6641 24.2C49.2908 24.4347 48.9975 24.7653 48.7841 25.192C48.5708 25.608 48.4641 26.0987 48.4641 26.664C48.4641 27.272 48.5761 27.8 48.8001 28.248C49.0348 28.696 49.3548 29.0427 49.7601 29.288C50.1761 29.5333 50.6508 29.656 51.1841 29.656C52.1335 29.656 52.9335 29.32 53.5841 28.648L54.5601 29.624C54.1441 30.0827 53.6375 30.44 53.0401 30.696C52.4428 30.9413 51.7761 31.064 51.0401 31.064C50.1655 31.064 49.4028 30.8827 48.7521 30.52C48.1015 30.1573 47.5948 29.656 47.2321 29.016C46.8695 28.3653 46.6881 27.6133 46.6881 26.76C46.6881 25.9067 46.8695 25.16 47.2321 24.52C47.5948 23.8693 48.1015 23.3627 48.7521 23C49.4028 22.6373 50.1495 22.4507 50.9921 22.44C51.9948 22.44 52.8001 22.648 53.4081 23.064C54.0161 23.4693 54.4481 24.0453 54.7041 24.792C54.9601 25.5387 55.0508 26.424 54.9761 27.448H48.1761V26.136H53.3761Z" fill="black"/>
</svg>
